<?xml version="1.0" encoding="UTF-8"?>
<svg width="300" height="200" viewBox="0 0 300 200" fill="none" xmlns="http://www.w3.org/2000/svg">
  <!-- Background elements -->
  <circle cx="150" cy="100" r="80" fill="#EBF5FF" />
  <circle cx="150" cy="100" r="60" fill="#DBEAFE" />
  
  <!-- Dashboard frame -->
  <rect x="75" y="50" width="150" height="100" rx="6" fill="white" stroke="#3B82F6" stroke-width="2"/>
  <rect x="75" y="50" width="150" height="15" rx="6" fill="#3B82F6"/>
  <circle cx="85" cy="57.5" r="3" fill="#EF4444"/>
  <circle cx="95" cy="57.5" r="3" fill="#F59E0B"/>
  <circle cx="105" cy="57.5" r="3" fill="#10B981"/>
  
  <!-- Dashboard content -->
  <rect x="85" y="75" width="60" height="30" rx="3" fill="#EBF5FF" stroke="#3B82F6" stroke-width="1"/>
  <rect x="155" y="75" width="60" height="65" rx="3" fill="#EBF5FF" stroke="#3B82F6" stroke-width="1"/>
  <rect x="85" y="115" width="60" height="25" rx="3" fill="#EBF5FF" stroke="#3B82F6" stroke-width="1"/>
  
  <!-- Chart elements -->
  <rect x="165" y="85" width="8" height="20" rx="1" fill="#3B82F6" opacity="0.7"/>
  <rect x="178" y="80" width="8" height="25" rx="1" fill="#3B82F6" opacity="0.8"/>
  <rect x="191" y="90" width="8" height="15" rx="1" fill="#3B82F6" opacity="0.6"/>
  <rect x="204" y="75" width="8" height="30" rx="1" fill="#3B82F6"/>
  
  <!-- Data elements -->
  <rect x="90" y="80" width="30" height="4" rx="1" fill="#3B82F6" opacity="0.6"/>
  <rect x="90" y="88" width="20" height="4" rx="1" fill="#3B82F6" opacity="0.4"/>
  <rect x="90" y="96" width="40" height="4" rx="1" fill="#3B82F6" opacity="0.3"/>
  
  <rect x="90" y="120" width="30" height="4" rx="1" fill="#3B82F6" opacity="0.6"/>
  <rect x="90" y="128" width="40" height="4" rx="1" fill="#3B82F6" opacity="0.3"/>
  
  <!-- People icons -->
  <circle cx="200" cy="130" r="7" fill="#BFDBFE"/>
  <circle cx="185" cy="130" r="7" fill="#93C5FD"/>
  <circle cx="170" cy="130" r="7" fill="#60A5FA"/>
  <circle cx="155" cy="130" r="7" fill="#3B82F6"/>
</svg>
