<?xml version="1.0" encoding="UTF-8"?>
<svg width="600" height="400" viewBox="0 0 600 400" fill="none" xmlns="http://www.w3.org/2000/svg">
  <!-- Background elements -->
  <circle cx="300" cy="200" r="150" fill="#EBF5FF" />
  <circle cx="300" cy="200" r="120" fill="#DBEAFE" />
  
  <!-- Dashboard frame -->
  <rect x="150" y="100" width="300" height="200" rx="8" fill="white" stroke="#3B82F6" stroke-width="2"/>
  <rect x="150" y="100" width="300" height="30" rx="8" fill="#3B82F6"/>
  <circle cx="165" cy="115" r="5" fill="#EF4444"/>
  <circle cx="185" cy="115" r="5" fill="#F59E0B"/>
  <circle cx="205" cy="115" r="5" fill="#10B981"/>
  
  <!-- Dashboard content -->
  <rect x="165" y="145" width="120" height="60" rx="4" fill="#EBF5FF" stroke="#3B82F6" stroke-width="1"/>
  <rect x="165" y="215" width="120" height="60" rx="4" fill="#EBF5FF" stroke="#3B82F6" stroke-width="1"/>
  <rect x="300" y="145" width="135" height="130" rx="4" fill="#EBF5FF" stroke="#3B82F6" stroke-width="1"/>
  
  <!-- Chart elements -->
  <rect x="310" y="165" width="15" height="40" rx="2" fill="#3B82F6" opacity="0.7"/>
  <rect x="335" y="155" width="15" height="50" rx="2" fill="#3B82F6" opacity="0.8"/>
  <rect x="360" y="175" width="15" height="30" rx="2" fill="#3B82F6" opacity="0.6"/>
  <rect x="385" y="145" width="15" height="60" rx="2" fill="#3B82F6"/>
  <rect x="410" y="165" width="15" height="40" rx="2" fill="#3B82F6" opacity="0.7"/>
  
  <!-- Data elements -->
  <rect x="175" y="155" width="60" height="8" rx="2" fill="#3B82F6" opacity="0.6"/>
  <rect x="175" y="170" width="40" height="8" rx="2" fill="#3B82F6" opacity="0.4"/>
  <rect x="175" y="185" width="80" height="8" rx="2" fill="#3B82F6" opacity="0.3"/>
  
  <rect x="175" y="225" width="60" height="8" rx="2" fill="#3B82F6" opacity="0.6"/>
  <rect x="175" y="240" width="40" height="8" rx="2" fill="#3B82F6" opacity="0.4"/>
  <rect x="175" y="255" width="80" height="8" rx="2" fill="#3B82F6" opacity="0.3"/>
  
  <!-- Decorative elements -->
  <circle cx="450" cy="80" r="20" fill="#3B82F6" opacity="0.2"/>
  <circle cx="480" cy="100" r="15" fill="#3B82F6" opacity="0.15"/>
  <circle cx="120" cy="250" r="25" fill="#3B82F6" opacity="0.2"/>
  <circle cx="90" cy="220" r="15" fill="#3B82F6" opacity="0.15"/>
  
  <!-- People icons -->
  <circle cx="400" cy="300" r="15" fill="#BFDBFE"/>
  <circle cx="370" cy="300" r="15" fill="#93C5FD"/>
  <circle cx="340" cy="300" r="15" fill="#60A5FA"/>
  <circle cx="310" cy="300" r="15" fill="#3B82F6"/>
  
  <!-- Connection lines -->
  <path d="M310 300 L340 300" stroke="#3B82F6" stroke-width="1"/>
  <path d="M340 300 L370 300" stroke="#3B82F6" stroke-width="1"/>
  <path d="M370 300 L400 300" stroke="#3B82F6" stroke-width="1"/>
</svg>
