<?xml version="1.0" encoding="UTF-8"?>
<svg width="32" height="32" viewBox="0 0 32 32" fill="none" xmlns="http://www.w3.org/2000/svg">
    <!-- Cloud base -->
    <path d="M24 22c3.314 0 6-2.686 6-6s-2.686-6-6-6c-.34 0-.674.028-1 .083C22.328 7.164 19.45 5 16 5c-4.418 0-8 3.582-8 8 0 .368.025.73.074 1.084C5.947 14.5 4 16.68 4 19.25 4 21.873 6.127 24 8.75 24h15.25z" 
          fill="#4F46E5"/>
    <!-- Flow lines -->
    <path d="M12 16h8M16 12v8" stroke="white" stroke-width="2" stroke-linecap="round"/>
    <!-- CRM dots -->
    <circle cx="12" cy="16" r="1.5" fill="white"/>
    <circle cx="16" cy="16" r="1.5" fill="white"/>
    <circle cx="20" cy="16" r="1.5" fill="white"/>
</svg> 